# xmcd
#
# Track frame offsets:
#	150
#	21787
#	38197
#	51105
#	69262
#	92702
#	121705
#	147985
#	164022
#	176005
#	191240
#	204875
#	219085
#	236820
#	255382
#	273820
#	295035
#
# Disc length: 4353 seconds
#
# Revision: 2
# Processed by: cddbd v1.5.2PL0 Copyright (c) Steve Scherf et al.
# Submitted via: audiograbber 1.83.01
#
DISCID=ee10ff11
DTITLE=Pila Music - Feel It (Blues)
DYEAR=1996
DGENRE=Blues
TTITLE0=Mark Farner - Judgement Day Blues
TTITLE1=Reverend Dan Smith - I've Never Been To Seminary, But I've Been To Calv
TTITLE1=ary
TTITLE2=G. Kaiser and D. Mansfield - Keep Your Lamp Trimmed and Burning
TTITLE3=Ashley Cleveland - I'm Not Made That Way
TTITLE4=Bryn Haworth - Mountain Mover
TTITLE5=Russ Taff - Ain't No Grave
TTITLE6=Trace Balin - Out Of The Blue
TTITLE7=Greg Chaisson - Too Late To Pray
TTITLE8=Darrell Mansfield - Boom Boom
TTITLE9=Acappella - Jesus In The U.S.A.
TTITLE10=Larry Howard - Gone Fishin'
TTITLE11=Steve Grace - Prodigal Son
TTITLE12=Rex Carroll feat. Ashley Cleveland - Invitational Blues
TTITLE13=Q Stone - Dead Man At Dawn
TTITLE14=Mercy River - Wrong Place At The Right Time
TTITLE15=Andy Landis feat. Sonny Landreth - It Don't Get Any Better Than This
TTITLE16=Chris Falson - Cool Water
EXTD=YEAR: 1996
EXTT0=
EXTT1=
EXTT2=
EXTT3=
EXTT4=
EXTT5=
EXTT6=
EXTT7=
EXTT8=
EXTT9=
EXTT10=
EXTT11=
EXTT12=
EXTT13=
EXTT14=
EXTT15=
EXTT16=
PLAYORDER=
